<?xml version="1.0" encoding="UTF-8" standalone="no"?>
<!DOCTYPE svg PUBLIC "-//W3C//DTD SVG 1.1//EN" "http://www.w3.org/Graphics/SVG/1.1/DTD/svg11.dtd">
<svg width="100%" height="100%" viewBox="0 0 194 150" version="1.1" xmlns="http://www.w3.org/2000/svg" xmlns:xlink="http://www.w3.org/1999/xlink" xml:space="preserve" xmlns:serif="http://www.serif.com/" style="fill-rule:evenodd;clip-rule:evenodd;stroke-linejoin:round;stroke-miterlimit:2;">
    <g id="path42074" transform="matrix(0.122868,0,0,0.12271,18.30666,0)">
        <path d="M507.624,926.84L507.654,1222.39L591.121,1222.39L591.121,926.845L507.624,926.84ZM-148.995,926.439L-148.995,1222.39L-64.784,1222.39L-64.784,997.669L0.455,997.692C22.064,997.692 37.456,1003.068 47.869,1014.18C61.073,1028.25 66.46,1050.93 66.46,1092.435L66.46,1222.39L148.053,1222.39L148.053,1058.879C148.053,942.176 73.662,926.439 0.889,926.439L-148.995,926.439ZM642.018,926.85L642.018,1222.39L777.403,1222.39C849.535,1222.39 873.076,1210.392 898.536,1183.497C916.536,1164.615 928.163,1123.166 928.163,1077.868C928.163,1036.328 918.32,999.266 901.149,976.187C870.225,934.918 825.674,926.85 759.166,926.85L642.018,926.85ZM724.817,991.2L760.704,991.2C812.77,991.2 846.443,1014.581 846.443,1075.248C846.443,1135.928 812.77,1159.309 760.704,1159.309L724.817,1159.309L724.817,991.2ZM387.278,926.85L317.616,1161.081L250.864,926.865L160.762,926.85L256.092,1222.39L376.394,1222.39L472.47,926.85L387.278,926.85ZM967.004,1222.39L1050.486,1222.39L1050.486,926.865L966.984,926.85L967.004,1222.39ZM1200.994,926.957L1084.441,1222.288L1166.745,1222.288L1185.186,1170.088L1323.12,1170.088L1340.575,1222.288L1429.937,1222.288L1312.493,926.931L1200.994,926.957ZM1255.177,980.835L1305.74,1119.193L1203.017,1119.193L1255.177,980.835Z"/>
    </g>
    <g id="path42076" transform="matrix(0.122868,0,0,0.12271,18.30666,0)">
        <path d="M397.27,234.546L397.27,163.541C404.16,163.054 411.123,162.686 418.222,162.463C612.412,156.36 739.816,329.322 739.816,329.322C739.816,329.322 602.215,520.441 454.679,520.441C433.428,520.441 414.414,517.016 397.27,511.261L397.27,295.956C472.869,305.088 488.068,338.484 533.531,414.243L634.616,329.015C634.616,329.015 560.829,232.235 436.439,232.235C422.903,232.235 409.968,233.19 397.27,234.546ZM397.27,0L397.27,106.056C404.239,105.505 411.217,105.063 418.222,104.809C688.273,95.711 864.211,326.283 864.211,326.283C864.211,326.283 662.122,572.019 451.595,572.019C432.304,572.019 414.241,570.24 397.27,567.234L397.27,632.79C411.786,634.636 426.817,635.722 442.509,635.722C638.431,635.722 780.117,535.676 917.317,417.252C940.046,435.467 1033.18,479.774 1052.329,499.192C921.872,608.396 617.868,696.412 445.522,696.412C428.914,696.412 412.941,695.412 397.27,693.904L397.27,786.037L1141.924,786.037L1141.924,0L397.27,0ZM397.27,511.261L397.27,567.234C216.062,534.927 165.768,346.562 165.768,346.562C165.768,346.562 252.768,250.166 397.27,234.546L397.27,295.956C397.158,295.956 397.085,295.928 396.986,295.928C321.163,286.82 261.915,357.671 261.915,357.671C261.915,357.671 295.108,476.936 397.27,511.261L397.27,511.261ZM75.427,338.4C75.427,338.4 182.823,179.926 397.27,163.541L397.27,106.056C159.749,125.119 -45.937,326.283 -45.937,326.283C-45.937,326.283 70.55,663.071 397.27,693.904L397.27,632.79C157.517,602.626 75.427,338.4 75.427,338.4Z" style="fill:rgb(122,181,71);"/>
    </g>
</svg>
